<?xml version="1.0" encoding="UTF-8" standalone="no"?>
<svg xmlns="http://www.w3.org/2000/svg" xmlns:xlink="http://www.w3.org/1999/xlink" fill="#000000" height="512" preserveAspectRatio="xMidYMid meet" version="1" viewBox="-0.5 0.0 512.5 512.0" width="512.5" zoomAndPan="magnify"><g fill="#ffffff" id="change1_1"><path d="M 378.851562 294.203125 C 377.855469 293.722656 340.527344 275.34375 333.898438 272.957031 C 331.1875 271.984375 328.289062 271.035156 325.203125 271.035156 C 320.164062 271.035156 315.929688 273.546875 312.628906 278.480469 C 308.902344 284.023438 297.613281 297.214844 294.128906 301.15625 C 293.671875 301.679688 293.050781 302.300781 292.675781 302.300781 C 292.34375 302.300781 286.566406 299.921875 284.816406 299.160156 C 244.777344 281.769531 214.386719 239.941406 210.21875 232.886719 C 209.621094 231.875 209.597656 231.414062 209.59375 231.414062 C 209.738281 230.878906 211.085938 229.527344 211.78125 228.832031 C 213.8125 226.820312 216.015625 224.167969 218.148438 221.601562 C 219.15625 220.386719 220.164062 219.171875 221.160156 218.023438 C 224.25 214.425781 225.628906 211.632812 227.222656 208.398438 L 228.058594 206.71875 C 231.957031 198.976562 228.628906 192.445312 227.550781 190.335938 C 226.667969 188.570312 210.910156 150.53125 209.234375 146.535156 C 205.203125 136.890625 199.878906 132.402344 192.480469 132.402344 C 191.792969 132.402344 192.480469 132.402344 189.601562 132.523438 C 186.09375 132.671875 167.003906 135.183594 158.5625 140.507812 C 149.609375 146.148438 134.464844 164.140625 134.464844 195.777344 C 134.464844 224.25 152.535156 251.136719 160.292969 261.359375 C 160.488281 261.617188 160.839844 262.140625 161.355469 262.894531 C 191.066406 306.285156 228.105469 338.441406 265.652344 353.441406 C 301.800781 367.878906 318.914062 369.546875 328.648438 369.546875 C 332.738281 369.546875 336.011719 369.226562 338.898438 368.941406 L 340.730469 368.769531 C 353.21875 367.660156 380.660156 353.441406 386.902344 336.09375 C 391.820312 322.433594 393.117188 307.503906 389.84375 302.085938 C 387.605469 298.402344 383.742188 296.550781 378.851562 294.203125" fill="inherit"/><path d="M 260.542969 447.160156 C 221.414062 447.160156 183.515625 435.859375 150.9375 414.480469 C 149.839844 413.761719 148.570312 413.394531 147.289062 413.394531 C 146.613281 413.394531 145.933594 413.496094 145.273438 413.707031 L 78.722656 434.859375 L 100.207031 371.476562 C 100.902344 369.425781 100.554688 367.164062 99.273438 365.414062 C 74.464844 331.515625 61.351562 291.464844 61.351562 249.589844 C 61.351562 140.632812 150.710938 51.992188 260.542969 51.992188 C 370.363281 51.992188 459.710938 140.632812 459.710938 249.589844 C 459.710938 358.53125 370.367188 447.160156 260.542969 447.160156 Z M 260.542969 0 C 121.878906 0 9.066406 111.964844 9.066406 249.589844 C 9.066406 294.101562 20.976562 337.671875 43.542969 375.804688 L 0.351562 503.214844 C -0.453125 505.59375 0.144531 508.21875 1.902344 510.007812 C 3.171875 511.300781 4.890625 512 6.648438 512 C 7.324219 512 8 511.898438 8.664062 511.6875 L 141.515625 469.472656 C 177.871094 488.894531 218.960938 499.148438 260.546875 499.148438 C 399.199219 499.148438 512 387.195312 512 249.589844 C 512 111.964844 399.199219 0 260.542969 0" fill="inherit"/></g></svg>